<svg xmlns="http://www.w3.org/2000/svg" width="100" height="126.804" viewBox="0 0 100 126.804"><g transform="translate(-2597.833 114.238)"><g transform="translate(2597.833 -114.238)"><path d="M424.217,456.049l.3-109.808a8.392,8.392,0,0,1,8.406-8.36l82.929.23a8.392,8.392,0,0,1,8.36,8.406l-.3,109.808a8.392,8.392,0,0,1-8.406,8.36l-82.93-.23A8.392,8.392,0,0,1,424.217,456.049Z" transform="translate(-424.217 -337.881)" fill="#d1d5db"/><path d="M437.729,430.058l.2-70.545a7.853,7.853,0,0,1,7.866-7.823l71.207.2a7.854,7.854,0,0,1,7.823,7.867l-.271,97.646a7.854,7.854,0,0,1-7.866,7.824l-44.111-.122A34.982,34.982,0,0,1,437.729,430.058Z" transform="translate(-431.237 -345.055)" fill="#fff"/><path d="M522.437,459.825H467.069a3.355,3.355,0,0,1,0-6.709h55.368a3.355,3.355,0,0,1,0,6.709Z" transform="translate(-444.753 -398.099)" fill="#4f46e5"/><path d="M479.4,421.537H467.1a3.355,3.355,0,1,1,0-6.709h12.3a3.355,3.355,0,1,1,0,6.709Z" transform="translate(-444.895 -378.091)" fill="#4f46e5"/><path d="M522.437,521.211H467.069a3.355,3.355,0,0,1,0-6.709h55.368a3.355,3.355,0,0,1,0,6.709Z" transform="translate(-444.753 -430.178)" fill="#4f46e5"/><path d="M522.437,490.518H467.069a3.355,3.355,0,0,1,0-6.709h55.368a3.355,3.355,0,0,1,0,6.709Z" transform="translate(-444.753 -414.138)" fill="#4f46e5"/></g></g></svg>